<svg width="12" height="17" viewBox="0 0 12 17" fill="none" xmlns="http://www.w3.org/2000/svg">
<path fill-rule="evenodd" clip-rule="evenodd" d="M3 7.67975C3 6.37806 3.01491 5.09626 3.42163 4.1303C3.61149 3.67938 3.87235 3.33922 4.23411 3.10307C4.59856 2.86516 5.14689 2.67975 5.99999 2.67975C6.8531 2.67975 7.40142 2.86516 7.76587 3.10307C8.12764 3.33922 8.3885 3.67938 8.57836 4.13031C8.98508 5.09626 9 6.37807 9 7.67975H3ZM11 7.67975L11 7.59366V7.59365C11.0004 6.40013 11.0009 4.72983 10.4216 3.35419C10.1115 2.61761 9.62236 1.92653 8.85912 1.42831C8.09857 0.931837 7.14689 0.679749 5.99999 0.679749C4.85309 0.679749 3.90142 0.931837 3.14087 1.42831C2.37763 1.92653 1.88849 2.61761 1.57836 3.35419C0.999146 4.72983 0.999634 6.40012 0.999983 7.59363L1 7.67975C0.447715 7.67975 0 8.12746 0 8.67975V15.6797C0 16.232 0.447715 16.6797 1 16.6797H11C11.5523 16.6797 12 16.232 12 15.6797V8.67975C12 8.12746 11.5523 7.67975 11 7.67975ZM7.5 12.1797C7.5 13.0082 6.82843 13.6797 6 13.6797C5.17157 13.6797 4.5 13.0082 4.5 12.1797C4.5 11.3513 5.17157 10.6797 6 10.6797C6.82843 10.6797 7.5 11.3513 7.5 12.1797Z" fill="#BDBDBD"/>
</svg>
